<?xml version="1.0" encoding="utf-8"?>
<!-- Generator: Adobe Illustrator 16.0.0, SVG Export Plug-In . SVG Version: 6.00 Build 0)  -->
<!DOCTYPE svg PUBLIC "-//W3C//DTD SVG 1.1//EN" "http://www.w3.org/Graphics/SVG/1.1/DTD/svg11.dtd">
<svg version="1.1" id="Capa_1" xmlns="http://www.w3.org/2000/svg" xmlns:xlink="http://www.w3.org/1999/xlink" x="0px" y="0px"
	 width="792px" height="612px" viewBox="0 0 792 612" enable-background="new 0 0 792 612" xml:space="preserve">
<path fill="#1E4899" d="M590.342,402.454c-14.954,0-29.16,5.857-39.878,16.45c-10.717,10.717-16.698,24.674-16.698,39.629
	c0,14.953,5.857,28.911,16.698,39.628c10.842,10.593,24.924,16.45,39.878,16.45c30.656,0,55.58-25.174,55.58-56.078
	C645.922,427.627,620.998,402.454,590.342,402.454z M590.342,489.688c-17.197,0-31.652-14.207-31.652-31.154
	c0-16.948,14.455-31.155,31.652-31.155c16.948,0,30.656,13.957,30.656,31.155C620.998,475.73,607.29,489.688,590.342,489.688z
	 M604.798,215.652c-2.243-2.119-5.234-3.24-8.35-3.24H532.52c-6.854,0-12.462,5.608-12.462,12.462v102.187
	c0,6.854,5.607,12.462,12.462,12.462h101.439c6.854,0,12.461-5.608,12.461-12.462v-68.416c0-3.489-1.495-6.854-4.112-9.222
	L604.798,215.652z M621.497,314.599h-76.516v-77.388h46.606l29.909,26.917V314.599z M286.024,402.454
	c-14.954,0-29.161,5.857-39.878,16.45c-10.717,10.717-16.699,24.674-16.699,39.629c0,14.953,5.857,28.911,16.699,39.628
	c10.842,10.593,24.924,16.45,39.878,16.45c30.656,0,55.58-25.174,55.58-56.078C341.604,427.627,316.681,402.454,286.024,402.454z
	 M286.024,489.688c-17.197,0-31.653-14.207-31.653-31.154c0-16.948,14.456-31.155,31.653-31.155
	c16.948,0,30.656,13.957,30.656,31.155C316.681,475.73,302.973,489.688,286.024,489.688z M202.904,417.782h-25.048v-33.148
	c0-6.854-5.608-12.462-12.462-12.462s-12.462,5.608-12.462,12.462v45.61c0,6.854,5.608,12.462,12.462,12.462h37.51
	c6.854,0,12.461-5.607,12.461-12.462C215.366,423.391,209.758,417.782,202.904,417.782z M266.085,349.865
	c0-6.854-5.608-12.462-12.462-12.462H102.462c-6.854,0-12.462,5.608-12.462,12.462c0,6.854,5.608,12.462,12.462,12.462h151.162
	C260.478,362.327,266.085,356.844,266.085,349.865z M127.759,304.878l151.162,0.873c6.854,0,12.461-5.483,12.586-12.337
	c0.125-6.979-5.483-12.586-12.337-12.586l-151.162-0.872c-0.125,0-0.125,0-0.125,0c-6.854,0-12.461,5.483-12.461,12.337
	C115.297,299.271,120.905,304.878,127.759,304.878z M153.182,248.302h151.162c6.854,0,12.462-5.608,12.462-12.462
	s-5.608-12.462-12.462-12.462H153.182c-6.854,0-12.462,5.608-12.462,12.462S146.328,248.302,153.182,248.302z M697.389,231.479
	L697.389,231.479l-89.227-73.899c-2.243-1.869-4.984-2.866-7.976-2.866H495.259v-44.862c0-6.854-5.608-12.462-12.462-12.462H165.394
	c-6.854,0-12.462,5.608-12.462,12.462v91.22c0,6.854,5.608,12.462,12.462,12.462s12.462-5.608,12.462-12.462v-78.759h292.603v295.47
	H368.272c-6.854,0-12.462,5.608-12.462,12.462c0,6.854,5.608,12.462,12.462,12.462h152.159c6.854,0,12.461-5.607,12.461-12.462
	c0-6.854-5.607-12.462-12.461-12.462h-25.049V179.637h100.442l81.251,67.294l-0.872,170.602h-12.96
	c-6.854,0-12.462,5.607-12.462,12.462s5.607,12.462,12.462,12.462h25.297c6.854,0,12.462-5.483,12.462-12.337L702,241.199
	C701.875,237.46,700.256,233.846,697.389,231.479z"/>
</svg>
