<?xml version="1.0" encoding="utf-8"?>
<!-- Generator: Adobe Illustrator 16.0.0, SVG Export Plug-In . SVG Version: 6.00 Build 0)  -->
<!DOCTYPE svg PUBLIC "-//W3C//DTD SVG 1.1//EN" "http://www.w3.org/Graphics/SVG/1.1/DTD/svg11.dtd">
<svg version="1.1" id="Capa_1" xmlns="http://www.w3.org/2000/svg" xmlns:xlink="http://www.w3.org/1999/xlink" x="0px" y="0px"
	 width="792px" height="612px" viewBox="0 0 792 612" enable-background="new 0 0 792 612" xml:space="preserve">
<g>
	<path fill="#981915" d="M498.931,0.298l-246.55,28.938c-23.575,2.793-40.372,24.152-37.616,47.69l29.385,250.313l35.027,22.178
		l-29.013-246.922L518.111,71.06l25.939,220.946l33.464,9.218L546.603,37.97C543.81,14.432,522.506-2.477,498.931,0.298z
		 M437.927,51.396L323.59,64.803l-1.453-12.439L436.455,38.9L437.927,51.396z M476.529,52.141
		c-6.033,0.708-11.489-3.631-12.179-9.665c-0.764-6.015,3.594-11.471,9.608-12.179c6.034-0.708,11.49,3.594,12.217,9.609
		C486.846,45.958,482.563,51.433,476.529,52.141z"/>
	<path fill="#981915" d="M545.336,343.122v156.906H275.621V359.975h-11.396l-20.875-42.997v252.081
		c0,23.668,19.236,42.941,42.998,42.941h248.188c23.743,0,42.961-19.255,42.961-42.941V330.031l-12.291,13.109L545.336,343.122
		L545.336,343.122z M462.843,566.19H358.059v-32.252h104.784V566.19z"/>
	<polygon fill="#981915" points="296.533,364.369 363.421,334.854 491.985,341.409 547.124,317.983 544.032,292.024 
		490.012,324.687 376.941,311.651 279.177,349.435 281.151,366.194 	"/>
</g>
</svg>
